<?xml version="1.0" encoding="utf-8"?>
<svg xmlns="http://www.w3.org/2000/svg" viewBox="0 0 50 50" fill="#000000"><path d="M 5.875 15.90625 C 2.640625 16.027344 0 18.679688 0 21.8125 L 0 42.1875 C 0 43.730469 1.269531 45 2.8125 45 L 5.09375 45 C 5.574219 47.832031 8.03125 50 11 50 C 13.96875 50 16.425781 47.832031 16.90625 45 L 33.09375 45 C 33.574219 47.832031 36.03125 50 39 50 C 41.96875 50 44.429688 47.832031 44.90625 45 L 45.3125 45 C 47.578125 45 50 43.640625 50 40.6875 L 50 32.8125 C 50 31.871094 49.800781 30.75 49.4375 29.65625 C 49.417969 29.609375 47.707031 24.882813 46.21875 21.3125 C 44.617188 17.359375 42.300781 15.90625 37.6875 15.90625 Z M 7.3125 21 L 13.6875 21 C 14.988281 21 16 22.011719 16 23.3125 L 16 27.6875 C 16 28.988281 14.988281 30 13.6875 30 L 7.3125 30 C 6.011719 30 5 28.988281 5 27.6875 L 5 23.3125 C 5 22.011719 6.011719 21 7.3125 21 Z M 22.3125 21 L 29.6875 21 C 30.988281 21 32 22.011719 32 23.3125 L 32 27.6875 C 32 28.988281 30.988281 30 29.6875 30 L 22.3125 30 C 21.011719 30 20 28.988281 20 27.6875 L 20 23.3125 C 20 22.011719 21.011719 21 22.3125 21 Z M 38.3125 21 L 43.875 21 C 44.050781 21.328125 44.214844 21.699219 44.375 22.09375 C 45.628906 25.097656 47.035156 28.90625 47.4375 30 L 38.3125 30 C 37.011719 30 36 28.988281 36 27.6875 L 36 23.3125 C 36 22.011719 37.011719 21 38.3125 21 Z M 11 40 C 13.207031 40 15 41.792969 15 44 C 15 44.347656 14.925781 44.679688 14.84375 45 C 14.398438 46.722656 12.859375 48 11 48 C 9.140625 48 7.601563 46.722656 7.15625 45 C 7.074219 44.679688 7 44.347656 7 44 C 7 41.792969 8.792969 40 11 40 Z M 39 40 C 41.207031 40 43 41.792969 43 44 C 43 44.347656 42.925781 44.679688 42.84375 45 C 42.398438 46.722656 40.859375 48 39 48 C 37.140625 48 35.601563 46.722656 35.15625 45 C 35.074219 44.679688 35 44.347656 35 44 C 35 41.792969 36.792969 40 39 40 Z" fill="#fff"/></svg>
